<svg width="209" height="197" viewBox="0 0 209 197" fill="none" xmlns="http://www.w3.org/2000/svg">
<g clip-path="url(#clip0_8_589)">
<path opacity="0.18" d="M122.473 193.915C124.594 194.79 126.939 194.919 129.229 195.027C148.55 195.959 167.884 196.405 187.232 196.366C189.166 196.366 191.143 196.346 192.955 195.675C194.767 195.004 196.409 193.531 196.728 191.623C184.613 190.682 172.413 190.774 160.342 190.327C154.013 190.093 147.441 190.886 141.146 191.488C137.955 191.795 134.77 192.155 131.59 192.567C129.591 192.83 124.252 194.649 122.473 193.915Z" fill="#1D2741"/>
<path d="M160.309 187.965L161.799 191.626L155.78 194.474L150.221 194.879C150.221 194.879 149.27 191.218 151.865 190.892C153.383 190.719 154.83 190.16 156.069 189.268L160.309 187.965ZM165.088 189.62C164.334 189.931 163.678 190.441 163.19 191.096C162.703 191.75 162.401 192.524 162.319 193.336L162.158 194.879H168.993V189.616L165.088 189.62Z" fill="#0197F6"/>
<path opacity="0.22" d="M208.507 21.8604V113.263C208.507 114.593 208.245 115.91 207.737 117.139C207.228 118.368 206.482 119.484 205.541 120.425C204.601 121.365 203.484 122.111 202.255 122.62C201.026 123.129 199.709 123.391 198.379 123.39H10.1277C7.44163 123.39 4.86562 122.323 2.96632 120.424C1.06702 118.525 0 115.949 0 113.263V21.8604C0.0034813 19.1755 1.07162 16.6015 2.97017 14.703C4.86872 12.8044 7.4427 11.7363 10.1277 11.7328H198.386C201.069 11.738 203.642 12.8069 205.539 14.7053C207.436 16.6036 208.503 19.1766 208.507 21.8604V21.8604Z" fill="url(#paint0_linear_8_589)"/>
<path d="M209 21.5216V112.92C209.001 115.238 208.206 117.486 206.75 119.289C205.294 121.092 203.263 122.341 200.997 122.828C200.3 122.975 199.589 123.049 198.876 123.048H10.6177C9.28735 123.049 7.96984 122.788 6.74052 122.279C5.5112 121.77 4.39418 121.024 3.4533 120.084C2.51243 119.143 1.76616 118.027 1.25714 116.797C0.748126 115.568 0.486354 114.251 0.486786 112.92V21.5216C0.489399 18.8355 1.5576 16.2601 3.45696 14.3608C5.35631 12.4614 7.93164 11.3932 10.6177 11.3906H198.876C201.335 11.3911 203.711 12.287 205.558 13.9111C207.406 15.5352 208.599 17.7763 208.914 20.2157C208.973 20.6485 209.002 21.0848 209 21.5216V21.5216Z" fill="#0197F6"/>
<path d="M209 21.5216V112.92C209.001 115.238 208.206 117.486 206.75 119.289C205.294 121.092 203.263 122.341 200.997 122.828C200.3 122.975 199.589 123.049 198.876 123.048H10.6177C9.28735 123.049 7.96984 122.788 6.74052 122.279C5.5112 121.77 4.39418 121.024 3.4533 120.084C2.51243 119.143 1.76616 118.027 1.25714 116.797C0.748126 115.568 0.486354 114.251 0.486786 112.92V21.5216C0.489399 18.8355 1.5576 16.2601 3.45696 14.3608C5.35631 12.4614 7.93164 11.3932 10.6177 11.3906H198.876C201.335 11.3911 203.711 12.287 205.558 13.9111C207.406 15.5352 208.599 17.7763 208.914 20.2157C208.973 20.6485 209.002 21.0848 209 21.5216V21.5216Z" fill="url(#paint1_linear_8_589)"/>
<path d="M208.428 20.5579H0.0855408C0.401952 18.1181 1.59561 15.877 3.44359 14.253C5.29156 12.629 7.6675 11.7331 10.1277 11.7328H198.386C200.846 11.7324 203.222 12.628 205.07 14.2522C206.918 15.8763 208.112 18.1179 208.428 20.5579V20.5579Z" fill="url(#paint2_linear_8_589)"/>
<path d="M136.077 91.7738H65.6011C64.1624 91.7738 62.996 92.9401 62.996 94.3789V98.6648C62.996 100.104 64.1624 101.27 65.6011 101.27H136.077C137.516 101.27 138.682 100.104 138.682 98.6648V94.3789C138.682 92.9401 137.516 91.7738 136.077 91.7738Z" fill="white" stroke="#0197F6" stroke-width="0.289455" stroke-miterlimit="10"/>
<path d="M69.1667 98.7174C70.3093 98.7174 71.2356 97.7911 71.2356 96.6484C71.2356 95.5058 70.3093 94.5795 69.1667 94.5795C68.024 94.5795 67.0977 95.5058 67.0977 96.6484C67.0977 97.7911 68.024 98.7174 69.1667 98.7174Z" fill="#0197F6"/>
<path d="M75.6038 98.7174C76.7465 98.7174 77.6727 97.7911 77.6727 96.6484C77.6727 95.5058 76.7465 94.5795 75.6038 94.5795C74.4612 94.5795 73.5349 95.5058 73.5349 96.6484C73.5349 97.7911 74.4612 98.7174 75.6038 98.7174Z" fill="#0197F6"/>
<path d="M82.0442 98.7174C83.1868 98.7174 84.1131 97.7911 84.1131 96.6484C84.1131 95.5058 83.1868 94.5795 82.0442 94.5795C80.9015 94.5795 79.9753 95.5058 79.9753 96.6484C79.9753 97.7911 80.9015 98.7174 82.0442 98.7174Z" fill="#0197F6"/>
<path d="M88.4813 98.7174C89.6239 98.7174 90.5502 97.7911 90.5502 96.6484C90.5502 95.5058 89.6239 94.5795 88.4813 94.5795C87.3386 94.5795 86.4123 95.5058 86.4123 96.6484C86.4123 97.7911 87.3386 98.7174 88.4813 98.7174Z" fill="#0197F6"/>
<path d="M143.79 96.0828V94.9907H144.652V94.2868H143.79V93.7605H144.652V93.0566H142.925V96.0828C142.401 96.1899 141.934 96.4881 141.617 96.9195C141.3 97.3508 141.154 97.8847 141.208 98.4175C141.262 98.9503 141.511 99.4441 141.909 99.8032C142.306 100.162 142.822 100.361 143.358 100.361C143.893 100.361 144.41 100.162 144.807 99.8032C145.204 99.4441 145.454 98.9503 145.508 98.4175C145.562 97.8847 145.416 97.3508 145.099 96.9195C144.781 96.4881 144.315 96.1899 143.79 96.0828ZM143.359 99.701C143.062 99.7016 142.771 99.614 142.523 99.4492C142.276 99.2845 142.083 99.0499 141.968 98.7753C141.854 98.5007 141.824 98.1983 141.881 97.9065C141.939 97.6147 142.082 97.3466 142.292 97.136C142.502 96.9255 142.77 96.782 143.062 96.7237C143.353 96.6654 143.656 96.695 143.931 96.8087C144.205 96.9224 144.44 97.115 144.606 97.3623C144.771 97.6096 144.859 97.9003 144.859 98.1978C144.859 98.5962 144.702 98.9784 144.42 99.2607C144.139 99.543 143.758 99.7025 143.359 99.7042V99.701Z" fill="#0197F6"/>
<path d="M113.69 41.3888H92.106C89.9697 41.3888 88.2379 43.1206 88.2379 45.257V66.8411C88.2379 68.9775 89.9697 70.7093 92.106 70.7093H113.69C115.827 70.7093 117.558 68.9775 117.558 66.8411V45.257C117.558 43.1206 115.827 41.3888 113.69 41.3888Z" fill="url(#paint3_linear_8_589)"/>
<path d="M113.809 41.3888H93.7803C91.7111 41.3888 90.0338 43.0661 90.0338 45.1353V66.9628C90.0338 69.032 91.7111 70.7093 93.7803 70.7093H113.809C115.878 70.7093 117.555 69.032 117.555 66.9628V45.1353C117.555 43.0661 115.878 41.3888 113.809 41.3888Z" fill="#0197F6"/>
<path d="M118.69 56.1444L117.177 57.5818L116.519 58.2002C116 57.5813 115.343 57.0943 114.599 56.7792C113.856 56.4641 113.048 56.33 112.243 56.3878C111.891 56.4304 111.534 56.3722 111.213 56.2201C110.125 55.6017 111.832 53.4933 111.832 53.4933C112.207 53.485 112.583 53.5015 112.957 53.5426C112.99 53.5394 113.023 53.5394 113.055 53.5426L113.355 53.5788C114.782 53.7827 117.108 54.4636 118.69 56.1444Z" fill="white"/>
<path opacity="0.39" d="M117.118 57.447L117.177 57.5818L116.519 58.2002C116 57.5813 115.343 57.0943 114.599 56.7792C113.856 56.4642 113.048 56.33 112.243 56.3878C111.891 56.4304 111.534 56.3723 111.213 56.2201L111.832 53.4933C111.832 53.4933 112.44 53.4933 112.957 53.5426C112.99 53.5394 113.023 53.5394 113.055 53.5426C113.156 53.5486 113.256 53.5607 113.355 53.5788C113.355 53.5788 113.713 55.1116 113.447 55.7563C113.447 55.7662 115.97 56.1872 117.118 57.447Z" fill="url(#paint4_linear_8_589)"/>
<path d="M103.408 47.5693H102.388C101.569 47.5693 100.905 48.2335 100.905 49.0528V63.0453C100.905 63.8646 101.569 64.5288 102.388 64.5288H103.408C104.227 64.5288 104.891 63.8646 104.891 63.0453V49.0528C104.891 48.2335 104.227 47.5693 103.408 47.5693Z" fill="url(#paint5_linear_8_589)"/>
<path d="M112.236 55.8188C112.22 57.5943 111.503 59.2916 110.243 60.5419C108.982 61.7921 107.279 62.4944 105.503 62.4961H104.053C103.834 62.4958 103.619 62.434 103.434 62.3177C103.248 62.2014 103.099 62.0352 103.003 61.8382C102.915 61.6599 102.873 61.4619 102.883 61.263C102.892 61.0641 102.952 60.871 103.057 60.7019C103.163 60.5328 103.309 60.3934 103.483 60.297C103.658 60.2005 103.854 60.1502 104.053 60.1508H104.592C105.177 60.1509 105.756 60.0343 106.295 59.8077C106.834 59.581 107.322 59.249 107.731 58.8311C108.14 58.4132 108.462 57.9178 108.677 57.374C108.892 56.8302 108.996 56.2489 108.983 55.6642C108.944 54.5052 108.454 53.4073 107.617 52.6044C106.78 51.8014 105.663 51.3568 104.503 51.3652H103.845C103.591 51.3652 103.346 51.264 103.166 51.0839C102.986 50.9037 102.885 50.6594 102.885 50.4047V49.9968C102.885 49.7421 102.986 49.4978 103.166 49.3177C103.346 49.1376 103.591 49.0364 103.845 49.0364H105.388C109.115 49.0331 112.263 52.0855 112.236 55.8188Z" fill="white"/>
<path opacity="0.39" d="M110.44 56.0885C110.427 57.6324 109.805 59.1089 108.71 60.1966C107.614 61.2844 106.133 61.8956 104.589 61.8973H103.326C103.214 61.8974 103.103 61.8796 102.997 61.8447C102.908 61.6664 102.867 61.4684 102.876 61.2695C102.886 61.0706 102.946 60.8774 103.051 60.7083C103.156 60.5393 103.303 60.3999 103.477 60.3034C103.651 60.207 103.847 60.1567 104.046 60.1573H104.586C105.17 60.1574 105.749 60.0408 106.288 59.8141C106.827 59.5875 107.316 59.2555 107.725 58.8376C108.134 58.4197 108.455 57.9243 108.67 57.3805C108.885 56.8366 108.989 56.2554 108.977 55.6707C108.937 54.5117 108.447 53.4138 107.61 52.6109C106.774 51.8079 105.656 51.3633 104.497 51.3716H103.839C103.584 51.3716 103.34 51.2705 103.16 51.0903C102.98 50.9102 102.878 50.6659 102.878 50.4112V50.2303C102.963 50.2025 103.052 50.1881 103.142 50.1875H104.48C106.052 50.184 107.561 50.8027 108.678 51.9084C109.795 53.0141 110.428 54.5169 110.44 56.0885V56.0885Z" fill="url(#paint6_linear_8_589)"/>
<path d="M108.773 54.4275C108.773 54.4275 109.214 55.6083 108.664 57.4109C108.664 57.4109 106.582 59.5522 108.358 62.9566L109.825 64.5255L108.118 66.2064C107.057 65.3845 106.234 64.2952 105.733 63.0501C105.231 61.805 105.071 60.4491 105.266 59.1213C105.645 56.2201 108.773 54.4275 108.773 54.4275Z" fill="white"/>
<path d="M106.661 67.5614L120.18 54.7333L131.521 64.5254L117.555 77.9226L106.661 67.5614Z" fill="#0197F6"/>
<path d="M106.661 67.5614L107.559 72.6466L117.555 82.2381V77.9226L106.661 67.5614Z" fill="#0197F6"/>
<path d="M131.521 64.5255V69.193L117.555 82.2382V77.9227L131.521 64.5255Z" fill="#0197F6"/>
<path d="M106.661 67.5614L107.559 72.6466L117.555 82.2381V77.9226L106.661 67.5614Z" fill="url(#paint7_linear_8_589)"/>
<path d="M131.521 64.5255V69.193L117.555 82.2382V77.9227L131.521 64.5255Z" fill="url(#paint8_linear_8_589)"/>
<path d="M109.154 69.9331L122.801 56.9965L124.061 58.0852L110.44 71.1568L109.154 69.9331Z" fill="url(#paint9_linear_8_589)"/>
<path d="M113.184 73.6795L127.156 60.7428L128.416 61.8283L114.47 74.8998L113.184 73.6795Z" fill="url(#paint10_linear_8_589)"/>
<path opacity="0.21" d="M152.161 86.4156C152.024 88.4476 152.135 90.4888 152.49 92.4941C152.714 93.7342 153.013 95.0992 152.375 96.1913C152.046 96.7833 151.454 97.1978 150.925 97.6353C147.563 100.398 145.619 104.5 142.748 107.77C142.557 108.038 142.281 108.235 141.965 108.325C141.639 108.347 141.316 108.255 141.05 108.066C139.302 107.056 137.832 105.628 136.774 103.908C136.258 103.066 135.787 102.105 134.899 101.674C133.255 100.865 131.261 102.586 131.081 104.418C130.9 106.25 131.883 107.973 132.834 109.549L137.231 116.845C138.57 119.068 139.981 121.367 142.165 122.765C143.677 123.687 145.375 124.26 147.135 124.443C149.629 124.772 152.158 124.607 154.668 124.413C159.257 124.058 163.835 123.602 168.401 123.045C169.966 122.854 171.746 122.512 172.538 121.154C173.071 120.239 172.999 119.111 172.907 118.058C172.584 114.245 172.256 110.433 171.92 106.622C171.739 104.46 171.469 102.112 169.946 100.573C169.035 99.6582 167.759 99.1385 166.95 98.1287C166.372 97.3191 165.999 96.381 165.865 95.3953C165.085 91.2837 165.832 86.8662 164.22 82.9947C163.891 82.2119 163.45 81.4356 162.723 80.9982C162.056 80.6522 161.305 80.5006 160.556 80.5607C156.954 80.6627 152.425 82.3797 152.161 86.4156Z" fill="url(#paint11_linear_8_589)"/>
<path opacity="0.18" d="M201.096 144.471C199.145 166.947 137.31 159.746 92.8428 150.635C48.3752 141.524 11.6868 159.746 3.22678 144.471C-0.519697 137.708 1.98344 129.261 5.94042 121.946C7.4486 122.787 9.14771 123.225 10.8743 123.219H197.455C200.024 129.268 201.79 136.504 201.096 144.471Z" fill="#0197F6"/>
<path d="M152.52 135.133L148.471 164.624C148.301 165.866 148.431 167.13 148.849 168.312L156.086 189.62L160.316 188.304L157.125 167.105C157.057 166.665 157.086 166.216 157.21 165.789L162.7 146.83L165.088 189.59H168.993L172.351 147.392C173.489 140.34 171.404 135.133 171.404 135.133H152.52Z" fill="#3F3D56"/>
<path d="M173.272 127.324L169.266 101.517L168.707 98.3721C168.707 98.3721 176.186 102.648 178.331 110.128C181.137 119.946 173.272 127.324 173.272 127.324Z" fill="#0197F6"/>
<path d="M173.272 127.324L169.266 101.517L168.707 98.3721C168.707 98.3721 176.186 102.648 178.331 110.128C181.137 119.946 173.272 127.324 173.272 127.324Z" fill="url(#paint12_linear_8_589)"/>
<path d="M177.384 121.318C180.42 115.315 174.423 104.872 174.423 104.872L169.259 101.52L169.841 97.7931C169.841 97.7931 178.17 98.645 178.982 110.404C179.252 114.19 178.969 118.867 177.384 121.318Z" fill="#0197F6"/>
<path d="M134.475 101.168C134.195 100.221 133.709 99.0923 132.722 99.0068C132.989 99.8706 132.95 100.8 132.61 101.638C130.459 100.842 129.959 97.6911 127.811 96.8754C127.482 97.224 127.666 97.7931 127.87 98.2273C128.245 99.0364 128.622 99.8456 129.002 100.655C128.497 99.8609 127.961 99.0934 127.393 98.3523C127.226 98.1253 126.936 97.8786 126.699 98.0233C126.462 98.1681 126.548 98.474 126.633 98.7108C127.008 99.7633 127.436 100.799 127.906 101.813C127.379 100.926 126.774 100.088 126.101 99.3061C125.66 99.4147 125.752 100.066 125.943 100.477L127.354 103.484L126.222 101.839C125.857 101.875 125.913 102.434 126.091 102.757C127.608 105.466 129.979 107.597 132.834 108.819C133.413 109.065 134.084 109.269 134.653 109.003C137.1 107.888 134.949 102.793 134.475 101.168Z" fill="url(#paint13_linear_8_589)"/>
<path d="M173.272 109.151V129.387C173.272 131.867 172.867 133.883 170.384 133.883H153.043C150.569 133.883 150.474 131.887 150.458 129.416L150.329 115.664C150.329 115.664 146.586 122.331 143.6 121.683C140.613 121.035 131.758 108.829 131.758 108.829L136.166 105.125L143.593 112.572C143.593 112.572 144.787 109.858 146.524 103.783C148.26 97.7077 153.905 97.6913 153.905 97.6913H168.983C174.427 97.6913 173.272 109.151 173.272 109.151Z" fill="#0197F6"/>
<path d="M173.272 111.43C173.272 111.43 175.877 115.091 173.272 118.752V111.43Z" fill="#3F3D56"/>
<path d="M171.404 133.755H152.52V135.133H171.404V133.755Z" fill="url(#paint14_linear_8_589)"/>
<path d="M164.401 83.9288H158.951V97.7865H164.401V83.9288Z" fill="url(#paint15_linear_8_589)"/>
<path d="M164.404 82.4093V97.7899H161.529V96.8525C161.529 96.5796 161.476 96.3095 161.371 96.0574C161.266 95.8054 161.113 95.5765 160.92 95.3837C160.727 95.1909 160.498 95.0381 160.246 94.934C159.994 94.8299 159.723 94.7765 159.45 94.7769H159.286C157.916 94.7769 156.603 94.2329 155.634 93.2644C154.666 92.2959 154.122 90.9824 154.122 89.6128V82.4093H164.404Z" fill="url(#paint16_linear_8_589)"/>
<path d="M154.122 83.9289C154.122 83.9289 149.352 81.3271 151.06 78.4786C152.767 75.6301 155.549 77.4228 155.549 77.4228H164.743C164.743 77.4228 165.799 77.2583 166.207 79.0477C166.615 80.837 164.417 91.9449 164.417 91.9449H159.849L159.263 89.0569C159.263 89.0569 160.174 88.0701 160.092 87.0209C160.1 86.8245 160.039 86.6314 159.921 86.4743C159.803 86.3171 159.635 86.2053 159.444 86.1579C159.253 86.1104 159.052 86.13 158.874 86.2135C158.696 86.297 158.552 86.4392 158.467 86.6163C158.056 87.3465 158.22 84.2546 156.757 83.9289C155.889 83.7322 154.989 83.7322 154.122 83.9289V83.9289Z" fill="#3F3D56"/>
<path d="M163.184 97.7604C163.184 97.7604 161.069 100.53 158.138 100.53C155.207 100.53 146.668 108.908 146.096 111.431C145.524 113.953 143.599 112.572 143.599 112.572C143.599 112.572 144.794 109.858 146.53 103.783C148.267 97.7077 153.905 97.6913 153.905 97.6913H161.569L163.184 97.7604Z" fill="url(#paint17_linear_8_589)"/>
<path d="M160.309 187.965L161.799 191.626L155.78 194.474L150.221 194.879C150.221 194.879 149.27 191.218 151.865 190.892C153.383 190.719 154.83 190.16 156.069 189.268L160.309 187.965Z" fill="url(#paint18_linear_8_589)"/>
<path d="M165.088 189.62C164.334 189.931 163.678 190.441 163.19 191.096C162.703 191.75 162.401 192.524 162.319 193.336L162.158 194.879H168.993V189.616L165.088 189.62Z" fill="url(#paint19_linear_8_589)"/>
<path opacity="0.18" d="M39.514 11.9039C39.514 11.9039 81.735 -14.8806 135.804 11.9039H39.514Z" fill="#0197F6"/>
</g>
<defs>
<linearGradient id="paint0_linear_8_589" x1="0" y1="67.5615" x2="208.513" y2="67.5615" gradientUnits="userSpaceOnUse">
<stop stop-color="#68E1FD"/>
<stop offset="1" stop-color="#69B9EB"/>
</linearGradient>
<linearGradient id="paint1_linear_8_589" x1="-29.7317" y1="39.7737" x2="287.551" y2="104.533" gradientUnits="userSpaceOnUse">
<stop stop-color="white" stop-opacity="0"/>
<stop offset="1" stop-color="white"/>
</linearGradient>
<linearGradient id="paint2_linear_8_589" x1="-17.8081" y1="18.7159" x2="354.813" y2="11.1802" gradientUnits="userSpaceOnUse">
<stop offset="0.02" stop-opacity="0"/>
<stop offset="0.99" stop-color="#3F3D56"/>
</linearGradient>
<linearGradient id="paint3_linear_8_589" x1="103.25" y1="55.9142" x2="38.5699" y2="80.3205" gradientUnits="userSpaceOnUse">
<stop stop-color="#68E1FD"/>
<stop offset="0.01" stop-color="#67DDF9"/>
<stop offset="0.12" stop-color="#5CB3CE"/>
<stop offset="0.24" stop-color="#538EA9"/>
<stop offset="0.37" stop-color="#4C718B"/>
<stop offset="0.5" stop-color="#465A73"/>
<stop offset="0.63" stop-color="#424A63"/>
<stop offset="0.79" stop-color="#404059"/>
<stop offset="0.99" stop-color="#3F3D56"/>
</linearGradient>
<linearGradient id="paint4_linear_8_589" x1="2694.52" y1="852.685" x2="2802.75" y2="852.685" gradientUnits="userSpaceOnUse">
<stop stop-color="#68E1FD"/>
<stop offset="1" stop-color="#69B9EB"/>
</linearGradient>
<linearGradient id="paint5_linear_8_589" x1="98.6582" y1="56.0326" x2="132.396" y2="56.1412" gradientUnits="userSpaceOnUse">
<stop stop-opacity="0"/>
<stop offset="0.02" stop-color="#030304" stop-opacity="0.04"/>
<stop offset="0.18" stop-color="#181821" stop-opacity="0.39"/>
<stop offset="0.35" stop-color="#292839" stop-opacity="0.66"/>
<stop offset="0.53" stop-color="#363449" stop-opacity="0.85"/>
<stop offset="0.73" stop-color="#3D3B53" stop-opacity="0.96"/>
<stop offset="0.99" stop-color="#3F3D56"/>
</linearGradient>
<linearGradient id="paint6_linear_8_589" x1="3485.77" y1="2031.37" x2="3249.43" y2="2036.41" gradientUnits="userSpaceOnUse">
<stop stop-color="#68E1FD"/>
<stop offset="1" stop-color="#69B9EB"/>
</linearGradient>
<linearGradient id="paint7_linear_8_589" x1="3734.16" y1="3717.81" x2="4336.92" y2="2520.9" gradientUnits="userSpaceOnUse">
<stop stop-opacity="0"/>
<stop offset="0.02" stop-color="#030304" stop-opacity="0.04"/>
<stop offset="0.18" stop-color="#181821" stop-opacity="0.39"/>
<stop offset="0.35" stop-color="#292839" stop-opacity="0.66"/>
<stop offset="0.53" stop-color="#363449" stop-opacity="0.85"/>
<stop offset="0.73" stop-color="#3D3B53" stop-opacity="0.96"/>
<stop offset="0.99" stop-color="#3F3D56"/>
</linearGradient>
<linearGradient id="paint8_linear_8_589" x1="5475.28" y1="4324.61" x2="4928.62" y2="2821.75" gradientUnits="userSpaceOnUse">
<stop stop-opacity="0"/>
<stop offset="0.02" stop-color="#030304" stop-opacity="0.04"/>
<stop offset="0.18" stop-color="#181821" stop-opacity="0.39"/>
<stop offset="0.35" stop-color="#292839" stop-opacity="0.66"/>
<stop offset="0.53" stop-color="#363449" stop-opacity="0.85"/>
<stop offset="0.73" stop-color="#3D3B53" stop-opacity="0.96"/>
<stop offset="0.99" stop-color="#3F3D56"/>
</linearGradient>
<linearGradient id="paint9_linear_8_589" x1="5649.03" y1="2467.5" x2="3881.87" y2="5116.82" gradientUnits="userSpaceOnUse">
<stop stop-opacity="0"/>
<stop offset="0.02" stop-color="#030304" stop-opacity="0.04"/>
<stop offset="0.18" stop-color="#181821" stop-opacity="0.39"/>
<stop offset="0.35" stop-color="#292839" stop-opacity="0.66"/>
<stop offset="0.53" stop-color="#363449" stop-opacity="0.85"/>
<stop offset="0.73" stop-color="#3D3B53" stop-opacity="0.96"/>
<stop offset="0.99" stop-color="#3F3D56"/>
</linearGradient>
<linearGradient id="paint10_linear_8_589" x1="5985.65" y1="2608.72" x2="4234.02" y2="5292.88" gradientUnits="userSpaceOnUse">
<stop stop-opacity="0"/>
<stop offset="0.02" stop-color="#030304" stop-opacity="0.04"/>
<stop offset="0.18" stop-color="#181821" stop-opacity="0.39"/>
<stop offset="0.35" stop-color="#292839" stop-opacity="0.66"/>
<stop offset="0.53" stop-color="#363449" stop-opacity="0.85"/>
<stop offset="0.73" stop-color="#3D3B53" stop-opacity="0.96"/>
<stop offset="0.99" stop-color="#3F3D56"/>
</linearGradient>
<linearGradient id="paint11_linear_8_589" x1="21936.5" y1="12154.8" x2="32938.3" y2="22003.2" gradientUnits="userSpaceOnUse">
<stop stop-opacity="0"/>
<stop offset="0.02" stop-color="#030304" stop-opacity="0.04"/>
<stop offset="0.18" stop-color="#181821" stop-opacity="0.39"/>
<stop offset="0.35" stop-color="#292839" stop-opacity="0.66"/>
<stop offset="0.53" stop-color="#363449" stop-opacity="0.85"/>
<stop offset="0.73" stop-color="#3D3B53" stop-opacity="0.96"/>
<stop offset="0.99" stop-color="#3F3D56"/>
</linearGradient>
<linearGradient id="paint12_linear_8_589" x1="6749.85" y1="9788.07" x2="4398.5" y2="10033.4" gradientUnits="userSpaceOnUse">
<stop stop-opacity="0"/>
<stop offset="0.02" stop-color="#030304" stop-opacity="0.04"/>
<stop offset="0.18" stop-color="#181821" stop-opacity="0.39"/>
<stop offset="0.35" stop-color="#292839" stop-opacity="0.66"/>
<stop offset="0.53" stop-color="#363449" stop-opacity="0.85"/>
<stop offset="0.73" stop-color="#3D3B53" stop-opacity="0.96"/>
<stop offset="0.99" stop-color="#3F3D56"/>
</linearGradient>
<linearGradient id="paint13_linear_8_589" x1="125.785" y1="103.01" x2="135.804" y2="103.01" gradientUnits="userSpaceOnUse">
<stop stop-color="#ECC4D7"/>
<stop offset="0.42" stop-color="#EFD4D1"/>
<stop offset="1" stop-color="#F2EAC9"/>
</linearGradient>
<linearGradient id="paint14_linear_8_589" x1="8908.69" y1="697.077" x2="9992.8" y2="697.077" gradientUnits="userSpaceOnUse">
<stop stop-color="#68E1FD"/>
<stop offset="1" stop-color="#69B9EB"/>
</linearGradient>
<linearGradient id="paint15_linear_8_589" x1="2810.04" y1="3913.08" x2="2958.38" y2="3912.03" gradientUnits="userSpaceOnUse">
<stop stop-color="#ECC4D7"/>
<stop offset="0.42" stop-color="#EFD4D1"/>
<stop offset="1" stop-color="#F2EAC9"/>
</linearGradient>
<linearGradient id="paint16_linear_8_589" x1="6149.7" y1="4264.55" x2="6084.12" y2="4287.68" gradientUnits="userSpaceOnUse">
<stop stop-color="#ECC4D7"/>
<stop offset="0.42" stop-color="#EFD4D1"/>
<stop offset="1" stop-color="#F2EAC9"/>
</linearGradient>
<linearGradient id="paint17_linear_8_589" x1="164.677" y1="109.615" x2="141.406" y2="100.504" gradientUnits="userSpaceOnUse">
<stop stop-color="white" stop-opacity="0"/>
<stop offset="1" stop-color="white"/>
</linearGradient>
<linearGradient id="paint18_linear_8_589" x1="6626.58" y1="4211.65" x2="7046.23" y2="4211.65" gradientUnits="userSpaceOnUse">
<stop stop-opacity="0"/>
<stop offset="0.02" stop-color="#030304" stop-opacity="0.04"/>
<stop offset="0.18" stop-color="#181821" stop-opacity="0.39"/>
<stop offset="0.35" stop-color="#292839" stop-opacity="0.66"/>
<stop offset="0.53" stop-color="#363449" stop-opacity="0.85"/>
<stop offset="0.73" stop-color="#3D3B53" stop-opacity="0.96"/>
<stop offset="0.99" stop-color="#3F3D56"/>
</linearGradient>
<linearGradient id="paint19_linear_8_589" x1="4181.67" y1="3265.63" x2="4323.7" y2="3265.63" gradientUnits="userSpaceOnUse">
<stop stop-opacity="0"/>
<stop offset="0.02" stop-color="#030304" stop-opacity="0.04"/>
<stop offset="0.18" stop-color="#181821" stop-opacity="0.39"/>
<stop offset="0.35" stop-color="#292839" stop-opacity="0.66"/>
<stop offset="0.53" stop-color="#363449" stop-opacity="0.85"/>
<stop offset="0.73" stop-color="#3D3B53" stop-opacity="0.96"/>
<stop offset="0.99" stop-color="#3F3D56"/>
</linearGradient>
<clipPath id="clip0_8_589">
<rect width="209" height="196.369" fill="white"/>
</clipPath>
</defs>
</svg>
