<svg width="20" height="21" viewBox="0 0 20 21" fill="none" xmlns="http://www.w3.org/2000/svg">
<path d="M14.1666 3C14.3855 2.78113 14.6453 2.60752 14.9313 2.48906C15.2173 2.37061 15.5238 2.30965 15.8333 2.30965C16.1428 2.30965 16.4493 2.37061 16.7353 2.48906C17.0213 2.60752 17.2811 2.78113 17.5 3C17.7188 3.21887 17.8924 3.47871 18.0109 3.76468C18.1294 4.05064 18.1903 4.35714 18.1903 4.66667C18.1903 4.9762 18.1294 5.2827 18.0109 5.56866C17.8924 5.85463 17.7188 6.11447 17.5 6.33334L6.24996 17.5833L1.66663 18.8333L2.91663 14.25L14.1666 3Z" stroke="#C4C4C4" stroke-width="2" stroke-linecap="round" stroke-linejoin="round"/>
</svg>
