<svg width="14" height="15" viewBox="0 0 14 15" fill="none" xmlns="http://www.w3.org/2000/svg">
<g clip-path="url(#clip0_6_296)">
<path d="M9.91669 2.25C10.0699 2.09679 10.2518 1.97526 10.452 1.89235C10.6521 1.80943 10.8667 1.76675 11.0834 1.76675C11.3 1.76675 11.5146 1.80943 11.7147 1.89235C11.9149 1.97526 12.0968 2.09679 12.25 2.25C12.4032 2.40321 12.5248 2.5851 12.6077 2.78527C12.6906 2.98545 12.7333 3.2 12.7333 3.41667C12.7333 3.63334 12.6906 3.84789 12.6077 4.04807C12.5248 4.24824 12.4032 4.43013 12.25 4.58334L4.37502 12.4583L1.16669 13.3333L2.04169 10.125L9.91669 2.25Z" stroke="#0197F6" stroke-width="1.41667" stroke-linecap="round" stroke-linejoin="round"/>
</g>
<defs>
<clipPath id="clip0_6_296">
<rect width="14" height="14" fill="white" transform="translate(0 0.5)"/>
</clipPath>
</defs>
</svg>
