<svg width="271" height="201" viewBox="0 0 271 201" fill="none" xmlns="http://www.w3.org/2000/svg">
<path opacity="0.31" d="M247.683 173.951C247.205 173.958 244.263 170.025 243.7 169.48C239.092 165.021 236.328 160.123 234.25 154.793C232.667 150.73 231.486 146.414 230.197 141.861C229.326 138.789 227.923 135.356 224.883 134.387C221.926 133.447 218.74 135.397 216.922 137.912C215.101 140.426 214.186 143.475 212.631 146.161C209.81 151.028 204.816 153.067 200.687 148.789C194.791 142.678 192.134 134.343 188.394 126.888C185.68 121.477 183.406 115.14 179.986 110.15C174.771 102.543 167.617 96.0547 158.108 96.0547C152.078 96.9667 146.768 102.309 143.171 108.981C139.576 115.653 137.477 123.592 135.691 131.509C134.193 138.149 132.879 144.863 131.663 151.611C129.402 143.479 127.049 135.407 124.503 127.474C121.745 118.883 118.699 110.324 114.468 103.449C110.237 96.574 104.635 91.5042 99.0115 91.539C90.3443 93.2173 84.752 101.774 81.085 111.255C78.6815 117.471 77.5162 125.001 75.8125 131.569C73.4692 140.616 72.2405 150.458 67.7375 158.378C64.5867 163.919 59.7417 162.507 56.4768 157.526C54.675 154.777 53.4052 151.509 51.388 149.001C49.3708 146.493 46.1883 144.859 43.6297 146.439C40.9982 148.064 40.2097 152.177 39.855 155.784C39.3293 161.139 38.8702 166.2 38.0057 171.051C37.8188 172.109 37.6098 173.153 37.3787 174.189H127.869C127.806 174.575 127.743 174.965 127.682 175.351C127.682 175.351 247.683 173.951 247.683 173.951Z" fill="#DCE6EF"/>
<path opacity="0.77" d="M211.476 161.652C211.242 166.317 206.165 174.471 201.501 174.236C196.836 174.002 194.347 165.465 194.585 160.8C194.819 156.136 199.788 132.791 204.452 133.029C209.114 133.263 211.71 156.988 211.476 161.652Z" fill="#FFBE55"/>
<path d="M201.874 173.986C201.871 173.986 201.868 173.986 201.868 173.986C201.801 173.983 201.748 173.923 201.754 173.856L204.107 136.053C204.11 135.986 204.164 135.929 204.237 135.939C204.303 135.942 204.357 136.002 204.351 136.069L201.998 173.872C201.991 173.936 201.938 173.986 201.874 173.986Z" fill="#0B4870"/>
<path opacity="0.77" d="M200.798 160.68C199.737 163.014 198.926 165.462 198.439 168.014C198.192 169.306 198.033 170.709 198.619 171.89C199.259 173.179 200.677 173.929 202.096 174.164C205.564 174.734 209.031 172.609 211.064 169.743C213.097 166.877 213.977 163.372 214.785 159.955C215.421 157.263 216.045 154.53 217.245 152.022C217.758 150.946 220.77 146.794 219.345 145.718C217.397 144.188 211.761 145.851 208.151 149.796C205.174 153.039 202.615 156.69 200.798 160.68Z" fill="#FFBE55"/>
<path d="M202.096 174.284C202.087 174.284 202.077 174.284 202.064 174.281C201.998 174.265 201.96 174.195 201.976 174.132C202.017 173.967 206.289 157.694 216.305 148.428C216.356 148.384 216.432 148.384 216.479 148.435C216.527 148.485 216.523 148.561 216.473 148.609C206.507 157.824 202.258 174.031 202.216 174.192C202.204 174.249 202.153 174.284 202.096 174.284Z" fill="#0B4870"/>
<path opacity="0.77" d="M225.317 156.839C224.959 157.482 224.288 157.919 223.677 158.261C222.926 158.685 222.125 159.056 221.349 159.417C220.355 159.879 219.329 160.357 218.379 160.952C217.689 161.386 217.074 161.877 216.558 162.403C217.372 160.553 218.325 158.938 219.446 157.494C220.922 155.594 222.435 154.632 223.952 154.632C223.987 154.632 224.022 154.632 224.057 154.635C224.525 154.647 224.89 154.765 225.14 154.98C225.656 155.42 225.634 156.269 225.317 156.839ZM227.008 167.374C226.41 167.802 225.615 167.909 224.918 167.96C224.057 168.02 223.173 168.014 222.321 168.011C221.226 168.004 220.092 167.995 218.981 168.128C218.17 168.226 217.404 168.407 216.713 168.66C218.24 167.336 219.791 166.282 221.422 165.458C223.569 164.372 225.349 164.151 226.72 164.8C226.752 164.816 226.783 164.831 226.815 164.847C227.233 165.059 227.512 165.319 227.648 165.623C227.92 166.237 227.537 166.998 227.008 167.374Z" fill="#FFBE55"/>
<path opacity="0.77" d="M223.018 172.561C222.521 172.492 222.075 172.175 221.704 171.871C221.248 171.497 220.811 171.083 220.39 170.677C219.848 170.161 219.288 169.626 218.674 169.17C218.224 168.837 217.758 168.568 217.296 168.372C218.677 168.429 219.94 168.631 221.14 168.986C222.717 169.452 223.705 170.177 224.082 171.139C224.092 171.162 224.098 171.184 224.108 171.206C224.215 171.507 224.231 171.767 224.158 171.982C224.006 172.422 223.458 172.621 223.018 172.561Z" fill="#FFBE55"/>
<path d="M211.669 174.379C211.606 174.373 211.545 174.325 211.545 174.256C211.545 174.154 211.732 164.122 223.823 155.715C223.88 155.677 223.956 155.689 223.994 155.746C224.032 155.803 224.019 155.879 223.962 155.917C211.976 164.252 211.789 174.157 211.789 174.256C211.792 174.322 211.739 174.379 211.669 174.379Z" fill="#0B4870"/>
<path d="M211.669 174.379C211.65 174.379 211.634 174.376 211.615 174.366C211.552 174.338 211.526 174.265 211.555 174.202C211.593 174.123 215.444 166.12 225.542 166.12C225.612 166.12 225.666 166.174 225.666 166.244C225.666 166.314 225.612 166.367 225.542 166.367C215.605 166.367 211.815 174.227 211.78 174.306C211.761 174.35 211.716 174.379 211.669 174.379Z" fill="#0B4870"/>
<path d="M223.246 171.545C223.221 171.545 223.195 171.535 223.173 171.519C219.177 168.505 217.21 168.593 217.195 168.597C217.125 168.603 217.068 168.549 217.062 168.483C217.058 168.416 217.109 168.356 217.176 168.35C217.258 168.34 219.231 168.239 223.322 171.323C223.376 171.364 223.389 171.44 223.348 171.497C223.322 171.526 223.284 171.545 223.246 171.545Z" fill="#0B4870"/>
<path d="M68.5608 159.654C66.8033 157.624 64.5771 155.876 63.8741 153.314C63.3611 151.443 63.7665 149.464 63.966 147.535C64.1655 145.607 64.0958 143.472 62.8481 141.99C61.819 140.768 60.1945 140.236 58.6333 139.9C57.0721 139.565 55.4413 139.352 54.0543 138.558C51.8028 137.266 52.2525 135.071 51.0428 133.146C49.6875 130.986 46.5303 128.228 43.826 129.662C40.9633 131.182 41.4161 135.796 43.3193 137.832C44.5828 139.185 46.201 140.48 46.3878 142.323C46.6665 145.094 43.4935 147.589 44.3643 150.236C45.0103 152.19 47.4708 152.861 48.69 154.521C49.8933 156.164 49.6495 158.463 48.9433 160.373C48.234 162.282 47.1193 164.046 46.6791 166.032C45.7766 170.098 48.9686 172.906 52.604 173.815C55.9448 174.648 63.149 174.255 63.149 174.255C65.7203 173.356 68.5703 171.098 69.9858 168.628C71.053 166.763 71.2018 164.401 70.3753 162.415C69.9478 161.396 69.2955 160.499 68.5608 159.654Z" fill="#FFBE55"/>
<path d="M60.6695 174.275C60.6062 174.275 60.5492 174.224 60.546 174.157C59.2255 153.33 47.0497 134.305 46.9262 134.115C46.8882 134.058 46.904 133.982 46.9642 133.944C47.0212 133.906 47.0972 133.922 47.1352 133.982C47.2587 134.172 59.4694 153.254 60.7962 174.142C60.7994 174.208 60.7487 174.268 60.6822 174.271C60.6759 174.274 60.6727 174.275 60.6695 174.275Z" fill="#0B4870"/>
<path d="M36.074 159.679C36.264 159.518 36.5395 159.429 36.8941 159.42C36.9195 159.42 36.948 159.42 36.9733 159.42C38.1165 159.42 39.2628 160.148 40.3806 161.583C41.2293 162.675 41.9481 163.897 42.5625 165.294C42.173 164.895 41.7074 164.524 41.185 164.198C40.4693 163.749 39.6903 163.388 38.9398 163.036C38.354 162.764 37.7491 162.482 37.1823 162.162C36.72 161.902 36.2133 161.57 35.941 161.085C35.7003 160.655 35.6845 160.012 36.074 159.679ZM34.1803 167.726C34.2816 167.498 34.4938 167.301 34.8105 167.14C34.8326 167.127 34.858 167.118 34.8801 167.105C35.9156 166.614 37.2615 166.782 38.886 167.602C40.121 168.226 41.2926 169.024 42.4485 170.025C41.926 169.832 41.3465 169.696 40.7353 169.623C39.893 169.521 39.038 169.528 38.2083 169.534C37.5623 169.537 36.8941 169.543 36.245 169.496C35.7161 169.458 35.1176 169.376 34.6648 169.053C34.2595 168.768 33.9713 168.191 34.1803 167.726Z" fill="#FFBE55"/>
<path d="M36.8151 172.539C36.7581 172.378 36.7708 172.181 36.8531 171.953C36.8595 171.937 36.8658 171.919 36.8721 171.903C37.1571 171.174 37.9045 170.626 39.0983 170.275C40.004 170.006 40.9603 169.854 42.0053 169.81C41.6538 169.958 41.3023 170.161 40.9635 170.414C40.498 170.76 40.0736 171.162 39.6651 171.554C39.3453 171.858 39.016 172.175 38.6708 172.457C38.3921 172.685 38.0533 172.925 37.6765 172.979C37.344 173.02 36.9323 172.869 36.8151 172.539Z" fill="#FFBE55"/>
<path d="M46.258 174.379C46.1915 174.379 46.1345 174.325 46.1345 174.256C46.1345 174.18 45.9857 166.7 36.9449 160.414C36.8879 160.376 36.8752 160.297 36.9132 160.243C36.9512 160.186 37.0304 160.173 37.0842 160.211C46.239 166.576 46.3815 174.18 46.3815 174.256C46.3847 174.322 46.3277 174.379 46.258 174.379C46.2612 174.379 46.2612 174.379 46.258 174.379Z" fill="#0B4870"/>
<path d="M46.2611 174.379C46.2136 174.379 46.1693 174.354 46.1503 174.309C46.1218 174.249 43.2623 168.324 35.77 168.324C35.7003 168.324 35.6465 168.271 35.6465 168.201C35.6465 168.131 35.7003 168.077 35.77 168.077C43.4238 168.077 46.3435 174.145 46.372 174.205C46.4005 174.268 46.3751 174.341 46.3118 174.369C46.296 174.373 46.277 174.379 46.2611 174.379Z" fill="#0B4870"/>
<path d="M37.5054 172.235C37.4674 172.235 37.4326 172.219 37.4073 172.185C37.3661 172.131 37.3756 172.051 37.4326 172.01C40.5328 169.67 42.0369 169.752 42.1003 169.756C42.1668 169.762 42.2206 169.819 42.2143 169.889C42.2079 169.955 42.1509 170.012 42.0813 170.003C42.0654 170.003 40.5898 169.939 37.5814 172.207C37.5561 172.229 37.5308 172.235 37.5054 172.235Z" fill="#0B4870"/>
<path d="M168.441 169.154H81.6172C79.7045 169.154 78.1497 167.599 78.1497 165.686V48.8365C78.1497 46.9238 79.7045 45.369 81.6172 45.369H107.568V46.319H81.6172C80.2302 46.319 79.0997 47.4495 79.0997 48.8365V165.686C79.0997 167.073 80.2302 168.204 81.6172 168.204H168.441C169.828 168.204 170.958 167.073 170.958 165.686V48.8365C170.958 47.4495 169.828 46.319 168.441 46.319H142.496V45.369H168.441C170.353 45.369 171.908 46.9238 171.908 48.8365V165.686C171.908 167.596 170.353 169.154 168.441 169.154Z" fill="#FFBE55"/>
<path d="M164.818 163.011H85.2397C84.5652 163.011 84.0173 162.463 84.0173 161.788V52.7347C84.0173 52.0602 84.5652 51.5123 85.2397 51.5123H164.818C165.493 51.5123 166.04 52.0602 166.04 52.7347V161.788C166.04 162.463 165.493 163.011 164.818 163.011Z" fill="#F2F2F2"/>
<path d="M142.908 54.7487H107.15V43.0478H117.502C117.571 38.9565 120.922 35.6473 125.029 35.6473C129.136 35.6473 132.486 38.9565 132.556 43.0478H142.908V54.7487V54.7487ZM108.1 53.7987H141.958V43.9978H131.565L131.596 43.3708C131.6 43.3075 131.606 43.241 131.606 43.1745C131.606 39.5487 128.655 36.5973 125.029 36.5973C121.403 36.5973 118.452 39.5487 118.452 43.1745C118.452 43.241 118.458 43.3075 118.461 43.3708L118.493 43.9978H108.1V53.7987Z" fill="#FFBE55"/>
<path d="M125.029 47.611C122.584 47.611 120.592 45.6223 120.592 43.1745C120.592 40.7267 122.581 38.738 125.029 38.738C127.477 38.738 129.465 40.7267 129.465 43.1745C129.465 45.6223 127.474 47.611 125.029 47.611ZM125.029 39.6912C123.107 39.6912 121.542 41.2555 121.542 43.1777C121.542 45.0998 123.107 46.6642 125.029 46.6642C126.951 46.6642 128.515 45.0998 128.515 43.1777C128.515 41.2555 126.951 39.6912 125.029 39.6912Z" fill="#FFBE55"/>
<path d="M249.9 187.489H18.1C14.4266 187.489 11.45 184.512 11.45 180.839C11.45 177.166 14.4266 174.189 18.1 174.189H249.9C253.573 174.189 256.55 177.166 256.55 180.839C256.55 184.512 253.573 187.489 249.9 187.489Z" fill="#D3D3D3"/>
<path d="M108.059 82.4665H94.3564V68.7643H108.059V82.4665ZM94.6731 82.1498H107.742V69.081H94.6731V82.1498Z" fill="#0B4870"/>
<path d="M101.659 79.4455L97.1304 75.8893L97.9125 74.895L101.573 77.7672L109.499 70.1323L110.377 71.0443L101.659 79.4455Z" fill="#0B4870"/>
<path d="M157.94 72.7227H114.325C114.04 72.7227 113.809 72.4915 113.809 72.2065C113.809 71.9215 114.04 71.6903 114.325 71.6903H157.94C158.225 71.6903 158.456 71.9215 158.456 72.2065C158.456 72.4915 158.225 72.7227 157.94 72.7227ZM157.94 74.9963H114.325C114.04 74.9963 113.809 74.7652 113.809 74.4802C113.809 74.1952 114.04 73.964 114.325 73.964H157.94C158.225 73.964 158.456 74.1952 158.456 74.4802C158.456 74.7652 158.225 74.9963 157.94 74.9963ZM157.94 77.2668H114.325C114.04 77.2668 113.809 77.0357 113.809 76.7507C113.809 76.4657 114.04 76.2345 114.325 76.2345H157.94C158.225 76.2345 158.456 76.4657 158.456 76.7507C158.456 77.0357 158.225 77.2668 157.94 77.2668ZM157.94 79.5405H114.325C114.04 79.5405 113.809 79.3093 113.809 79.0243C113.809 78.7393 114.04 78.5082 114.325 78.5082H157.94C158.225 78.5082 158.456 78.7393 158.456 79.0243C158.456 79.3093 158.225 79.5405 157.94 79.5405Z" fill="#0B4870"/>
<path d="M108.059 104.016H94.3564V90.3135H108.059V104.016ZM94.6731 103.699H107.742V90.6302H94.6731V103.699Z" fill="#0B4870"/>
<path d="M101.659 100.995L97.1304 97.4385L97.9125 96.4442L101.573 99.3163L109.499 91.6815L110.377 92.5935L101.659 100.995Z" fill="#0B4870"/>
<path d="M157.94 94.2718H114.326C114.041 94.2718 113.809 94.0407 113.809 93.7557C113.809 93.4707 114.041 93.2395 114.326 93.2395H157.94C158.225 93.2395 158.456 93.4707 158.456 93.7557C158.456 94.0407 158.225 94.2718 157.94 94.2718ZM157.94 96.5455H114.326C114.041 96.5455 113.809 96.3143 113.809 96.0293C113.809 95.7443 114.041 95.5132 114.326 95.5132H157.94C158.225 95.5132 158.456 95.7443 158.456 96.0293C158.456 96.3143 158.225 96.5455 157.94 96.5455ZM157.94 98.816H114.326C114.041 98.816 113.809 98.5848 113.809 98.2998C113.809 98.0148 114.041 97.7837 114.326 97.7837H157.94C158.225 97.7837 158.456 98.0148 158.456 98.2998C158.456 98.5848 158.225 98.816 157.94 98.816ZM157.94 101.09H114.326C114.041 101.09 113.809 100.859 113.809 100.574C113.809 100.289 114.041 100.057 114.326 100.057H157.94C158.225 100.057 158.456 100.289 158.456 100.574C158.456 100.859 158.225 101.09 157.94 101.09Z" fill="#0B4870"/>
<path d="M108.059 125.565H94.3564V111.863H108.059V125.565ZM94.6731 125.248H107.742V112.179H94.6731V125.248Z" fill="#0B4870"/>
<path d="M101.659 122.544L97.1304 118.988L97.9125 117.993L101.573 120.865L109.499 113.231L110.377 114.143L101.659 122.544Z" fill="#0B4870"/>
<path d="M157.94 115.821H114.326C114.041 115.821 113.809 115.59 113.809 115.305C113.809 115.02 114.041 114.789 114.326 114.789H157.94C158.225 114.789 158.456 115.02 158.456 115.305C158.456 115.59 158.225 115.821 157.94 115.821ZM157.94 118.095H114.326C114.041 118.095 113.809 117.864 113.809 117.579C113.809 117.294 114.041 117.062 114.326 117.062H157.94C158.225 117.062 158.456 117.294 158.456 117.579C158.456 117.864 158.225 118.095 157.94 118.095ZM157.94 120.365H114.326C114.041 120.365 113.809 120.134 113.809 119.849C113.809 119.564 114.041 119.333 114.326 119.333H157.94C158.225 119.333 158.456 119.564 158.456 119.849C158.456 120.134 158.225 120.365 157.94 120.365ZM157.94 122.639H114.326C114.041 122.639 113.809 122.408 113.809 122.123C113.809 121.838 114.041 121.606 114.326 121.606H157.94C158.225 121.606 158.456 121.838 158.456 122.123C158.456 122.408 158.225 122.639 157.94 122.639Z" fill="#0B4870"/>
<path d="M108.059 147.114H94.3564V133.412H108.059V147.114ZM94.6731 146.797H107.742V133.729H94.6731V146.797Z" fill="#0B4870"/>
<path d="M101.659 144.093L97.1304 140.537L97.9125 139.542L101.573 142.415L109.499 134.78L110.377 135.692L101.659 144.093Z" fill="#0B4870"/>
<path d="M157.94 137.37H114.326C114.041 137.37 113.809 137.139 113.809 136.854C113.809 136.569 114.041 136.338 114.326 136.338H157.94C158.225 136.338 158.456 136.569 158.456 136.854C158.456 137.139 158.225 137.37 157.94 137.37ZM157.94 139.644H114.326C114.041 139.644 113.809 139.413 113.809 139.128C113.809 138.843 114.041 138.611 114.326 138.611H157.94C158.225 138.611 158.456 138.843 158.456 139.128C158.456 139.413 158.225 139.644 157.94 139.644ZM157.94 141.914H114.326C114.041 141.914 113.809 141.683 113.809 141.398C113.809 141.113 114.041 140.882 114.326 140.882H157.94C158.225 140.882 158.456 141.113 158.456 141.398C158.456 141.683 158.225 141.914 157.94 141.914ZM157.94 144.188H114.326C114.041 144.188 113.809 143.957 113.809 143.672C113.809 143.387 114.041 143.156 114.326 143.156H157.94C158.225 143.156 158.456 143.387 158.456 143.672C158.456 143.957 158.225 144.188 157.94 144.188Z" fill="#0B4870"/>
<path d="M160.147 122.085C160.857 121.581 161.509 120.998 161.81 120.827C161.936 120.758 162.329 120.669 162.44 120.634C162.769 120.536 163.295 120.435 163.523 120.178L164.498 119.108C164.961 118.582 165.565 118.408 166.088 118.871C166.655 119.371 166.487 120.083 165.923 120.59L165.255 121.35C164.805 121.755 164.581 122.325 164.33 122.876C163.824 124.001 162.674 124.846 161.693 125.438C161.075 125.809 160.141 125.546 158.915 125.128C158.314 124.922 157.443 124.425 158.193 124.143C158.824 123.909 160.717 124.419 161.553 122.674C161.594 122.588 161.683 122.36 161.598 122.281C161.344 122.044 160.784 122.582 160.41 122.753C159.884 122.994 159.463 122.911 159.333 122.718C159.194 122.515 159.641 122.446 160.147 122.085Z" fill="#FAB9AF"/>
<path d="M186.798 83.8028C186.798 83.8028 185.234 102.581 179.619 108.918C176.237 112.737 167.963 119.285 166.047 120.786C165.803 120.976 165.461 120.986 165.208 120.808C165.046 120.694 164.862 120.555 164.704 120.416C164.543 120.273 164.356 120.068 164.188 119.871C163.909 119.545 163.922 119.061 164.213 118.747C166.36 116.413 174.784 107.163 175.81 104.731C176.984 101.942 179.008 85.4717 180.867 83.0872C182.726 80.6963 186.288 80.1802 186.798 83.8028Z" fill="#FFBE55"/>
<path d="M179.708 114.824L184.496 81.1935L197.406 79.4202L204.123 114.583L179.708 114.824Z" fill="#FAB9AF"/>
<path d="M189.689 166.937L189.676 170.728C189.673 171.5 189.778 172.267 189.987 173.008L190.316 174.176C190.585 175.136 189.866 176.086 188.869 176.083C186.288 176.073 181.874 176.079 180.737 176.083C180.55 176.083 180.37 175.956 180.354 175.772C180.259 174.667 183.454 173.923 185.864 172.992C187.697 172.283 187.599 168.986 187.374 167.061C187.289 166.332 187.897 165.715 188.625 165.775C189.227 165.826 189.692 166.332 189.689 166.937ZM207.435 165.873L208.74 170.208C208.797 170.402 208.882 170.582 208.996 170.747L209.921 172.121C210.51 172.995 210.086 174.186 209.079 174.493C209.079 174.493 207.21 175.148 205.288 175.782C203.318 176.428 200.839 175.889 200.839 175.367C200.839 174.211 201.916 175.129 203.721 173.923C204.325 173.518 204.949 173.096 205.507 172.659C207.058 171.44 205.703 168.356 204.753 166.617C204.411 165.994 204.775 165.218 205.472 165.069L205.921 164.974C206.58 164.838 207.239 165.227 207.435 165.873Z" fill="#FAB9AF"/>
<path d="M194.094 115.15L179.784 113.95C179.784 113.95 178.343 124.365 181.959 143.216C183.656 152.057 187.19 168.951 187.19 168.951C188.068 169.335 188.957 169.43 189.863 169.205C189.863 169.205 190.132 161.753 190.297 153.726C190.455 146.031 190.496 137.807 190.987 135.115C191.988 129.618 194.094 115.15 194.094 115.15Z" fill="#0B4870"/>
<path d="M191.139 115.33C189.66 123.26 186.361 135.116 192.719 146.253C199.075 157.39 205.753 168.97 205.753 168.97C206.615 169.005 207.394 168.695 208.119 168.144C208.119 168.144 207.004 163.096 205.392 157.2C203.549 150.455 201.216 142.522 201.881 138.387C203.128 130.635 204.56 120.311 204.126 115.295C203.689 110.279 191.915 111.163 191.139 115.33Z" fill="#0B4870"/>
<path d="M179.214 113.969L184.496 81.1935L197.409 79.4202L204.348 114.029C204.477 114.678 204.056 115.311 203.404 115.435C201 115.891 195.202 116.841 188.711 116.841C183.866 116.841 181.142 115.9 179.904 115.302C179.404 115.061 179.125 114.52 179.214 113.969Z" fill="#F2F2F2"/>
<path d="M204.772 126.654C204.968 125.809 205.076 124.938 205.187 124.612C205.234 124.475 205.472 124.149 205.532 124.048C205.715 123.757 206.042 123.332 206.042 122.99L206.067 121.543C206.067 120.843 206.406 120.314 207.102 120.314C207.859 120.314 208.204 120.961 208.116 121.714V122.727C208.046 123.329 208.255 123.906 208.432 124.485C208.793 125.663 208.493 127.056 208.147 128.152C207.932 128.839 207.055 129.26 205.861 129.754C205.275 129.998 204.29 130.201 204.667 129.495C204.984 128.902 206.741 128.035 206.216 126.17C206.19 126.078 206.108 125.847 205.991 125.844C205.643 125.834 205.579 126.607 205.411 126.983C205.177 127.512 204.807 127.728 204.579 127.671C204.341 127.607 204.629 127.259 204.772 126.654Z" fill="#FAB9AF"/>
<path d="M193.375 81.4627C193.375 83.825 193.806 86.162 194.61 88.3818C196.187 92.7233 198.556 100.931 197.146 108.164C195.123 118.579 192.517 122.788 195.893 125.217C199.268 127.642 205.741 123.595 205.928 122.243C206.115 120.894 204.667 104.31 203.03 97.125C201.39 89.9398 196.798 79.6102 196.798 79.6102L194.854 79.8192C194.011 79.9078 193.375 80.6172 193.375 81.4627Z" fill="#FFBE55"/>
<path d="M199.442 80.3132C199.442 80.3132 210.69 95.434 210.668 103.899C210.656 109 208.781 119.383 208.338 121.777C208.281 122.081 208.034 122.316 207.723 122.348C207.527 122.37 207.296 122.386 207.087 122.386C206.875 122.386 206.596 122.354 206.339 122.319C205.915 122.259 205.605 121.888 205.614 121.458C205.681 118.288 205.883 105.779 205.041 103.275C204.075 100.402 194.702 86.7162 194.518 83.6952C194.331 80.6773 196.665 77.9318 199.442 80.3132ZM187.998 80.7122C187.998 80.7122 185.759 85.5508 186.538 92.5048C187.32 99.4588 189.129 120.634 182.802 123.833C180.797 124.846 176.221 120.362 176.221 118.696C176.221 117.031 177.748 111.464 179.195 106.4C180.642 101.337 184.128 81.241 184.128 81.241L187.998 80.7122Z" fill="#FFBE55"/>
<path d="M189.8 65.7117C192.682 65.7117 193.758 67.7637 193.812 71.5573C193.834 72.9792 193.195 74.3852 192.678 75.2845C192.295 75.9527 192.191 76.7443 192.409 77.4822L193.043 79.6228C193.473 81.6083 192.53 82.7008 191.136 83.0967C190.446 83.293 189.619 83.141 189.018 82.7515C188.302 82.2892 188.242 81.2917 188.375 80.4493L188.54 79.8382C188.761 79.0148 188.283 78.1282 187.45 77.9477C185.23 77.4632 184.914 75.1483 184.318 71.5573C183.698 67.8143 186.918 65.7117 189.8 65.7117Z" fill="#FAB9AF"/>
<path d="M183.09 64.046L184.743 64.5495C185.351 64.7332 185.997 64.7395 186.608 64.5622L189.907 63.6058C191.906 63.6058 195.208 64.7332 194.79 67.618L194.423 69.6573C194.277 70.4712 193.597 71.0823 192.77 71.152C192.694 71.4338 192.438 71.6302 192.146 71.6302C191.788 71.6302 191.5 71.342 191.5 70.9842C191.5 70.0627 190.854 69.2805 189.958 69.0778C188.856 68.8308 187.681 68.7707 186.449 69.1032C184.157 69.7207 181.737 68.2988 181.509 65.9333C181.494 65.7845 181.487 65.6325 181.487 65.4773C181.484 64.521 182.273 63.8212 183.09 64.046Z" fill="#0B4870"/>
<path d="M192.225 71.627C192.225 72.5073 192.552 73.2198 193.4 73.2198C194.249 73.2198 194.79 72.0102 194.79 71.1298C194.79 70.2495 194.246 70.0342 193.4 70.0342C192.552 70.0342 192.225 70.7498 192.225 71.627Z" fill="#FAB9AF"/>
<path d="M192.574 75.4903C192.574 75.4903 190.42 78.448 187.745 78.049C187.745 78.049 188.302 78.315 188.435 78.7457C188.435 78.7457 190.978 78.5588 192.574 75.4903Z" fill="#E8948B"/>
<path d="M198.283 34.2477C198.283 36.3028 196.928 37.9717 195.253 37.9717H159.321C157.649 37.9717 156.29 36.306 156.29 34.2477C156.29 32.1925 157.646 30.5237 159.321 30.5237H195.253C196.928 30.5268 198.283 32.1925 198.283 34.2477ZM69.6628 54.185C69.6628 56.2402 67.9972 57.909 65.9388 57.909H21.7892C19.734 57.909 18.0652 56.2433 18.0652 54.185C18.0652 52.1298 19.7309 50.461 21.7892 50.461H65.942C67.9972 50.461 69.6628 52.1267 69.6628 54.185ZM87.7128 34.235C87.7128 36.2902 86.3322 37.959 84.6317 37.959H48.0979C46.3974 37.959 45.0167 36.2933 45.0167 34.235C45.0167 32.1798 46.3974 30.511 48.0979 30.511H84.6317C86.3322 30.511 87.7128 32.1767 87.7128 34.235ZM237.62 50.3723C237.62 52.4275 235.954 54.0963 233.896 54.0963H189.746C187.691 54.0963 186.022 52.4307 186.022 50.3723C186.022 48.3172 187.688 46.6483 189.746 46.6483H233.899C235.954 46.6515 237.62 48.3172 237.62 50.3723Z" fill="#F2F2F2"/>
<path d="M190.072 173.306C190.072 173.306 188.071 174.189 186.206 172.815C186.206 172.815 181.601 173.553 180.281 174.914C178.96 176.276 179.917 176.95 181.576 176.922C183.232 176.893 189.635 176.827 189.635 176.827C189.635 176.827 191.279 175.823 190.072 173.306ZM209.313 171.07C209.313 171.07 208.337 172.352 206.152 171.592C206.152 171.592 201.295 173.812 200.437 175.503C199.578 177.194 200.69 177.555 202.267 177.039C203.844 176.523 209.937 174.566 209.937 174.566C209.937 174.566 211.21 173.116 209.313 171.07Z" fill="#0B4870"/>
</svg>
